<svg width="19" height="17" viewBox="0 0 19 17" fill="none" xmlns="http://www.w3.org/2000/svg">
<path fill-rule="evenodd" clip-rule="evenodd" d="M1.0148 1.26661C1.51467 0.821346 2.32512 0.821346 2.82499 1.26661L9.59989 7.30144L16.3748 1.26661C16.8747 0.821346 17.6851 0.821346 18.185 1.26661C18.6849 1.71188 18.6849 2.4338 18.185 2.87906L11.4101 8.91389L18.185 14.9487C18.6849 15.394 18.6849 16.1159 18.185 16.5612C17.6851 17.0064 16.8747 17.0064 16.3748 16.5612L9.59989 10.5263L2.82499 16.5612C2.32512 17.0064 1.51467 17.0064 1.0148 16.5612C0.514925 16.1159 0.514925 15.394 1.0148 14.9487L7.7897 8.91389L1.0148 2.87906C0.514925 2.4338 0.514925 1.71188 1.0148 1.26661Z" fill="#3F3F55"/>
</svg>
