<svg width="32" height="32" viewBox="0 0 32 32" fill="none" xmlns="http://www.w3.org/2000/svg">
<path d="M31 26C30.4 26 30 25.6 30 25V12C30 11.4 30.4 11 31 11C31.6 11 32 11.4 32 12V25C32 25.6 31.6 26 31 26Z" fill="#71318E"/>
<path d="M16 21C15.8 21 15.7 21 15.5 20.9L0.5 12.9C0.2 12.7 0 12.4 0 12C0 11.6 0.2 11.3 0.5 11.1L15.5 3.10001C15.8 2.90001 16.1 2.90001 16.4 3.10001L31.4 11.1C31.7 11.3 31.9 11.6 31.9 12C31.9 12.4 31.7 12.7 31.4 12.9L16.4 20.9C16.3 21 16.2 21 16 21Z" fill="#71318E"/>
<path d="M17.4 22.6C17 22.9 16.5 23 16 23C15.5 23 15 22.9 14.6 22.6L6 18.1V22C6 25.1 10.9 28 16 28C21.1 28 26 25.1 26 22V18.1L17.4 22.6Z" fill="#71318E"/>
</svg>
