<svg width="22" height="22" viewBox="0 0 22 22" fill="none" xmlns="http://www.w3.org/2000/svg">
<path d="M2.70889 20.6667H12.6244C13.3771 20.6667 13.9693 20.0423 13.8193 19.3047C13.4053 17.2683 12.0529 13.6667 7.66665 13.6667C3.2804 13.6667 1.92805 17.2683 1.51397 19.3047C1.36398 20.0423 1.95622 20.6667 2.70889 20.6667Z" stroke="#3F3F55" stroke-width="1.5" stroke-linecap="round" stroke-linejoin="round"/>
<path d="M16 13.6667C18.7717 13.6667 19.9069 16.5305 20.3652 18.5947C20.6127 19.7093 19.7111 20.6667 18.5692 20.6667H17.3333" stroke="#3F3F55" stroke-width="1.5" stroke-linecap="round" stroke-linejoin="round"/>
<path d="M7.66667 8.66666C9.69171 8.66666 11.3333 7.02504 11.3333 4.99999C11.3333 2.97495 9.69171 1.33333 7.66667 1.33333C5.64162 1.33333 4 2.97495 4 4.99999C4 7.02504 5.64162 8.66666 7.66667 8.66666Z" stroke="#3F3F55" stroke-width="1.5" stroke-linecap="round" stroke-linejoin="round"/>
<path d="M14.6666 8.66666C16.6917 8.66666 18 7.02504 18 5C18 2.97495 16.6917 1.33333 14.6666 1.33333" stroke="#3F3F55" stroke-width="1.5" stroke-linecap="round" stroke-linejoin="round"/>
</svg>
